<?xml version="1.0" standalone="no"?>
<!DOCTYPE svg PUBLIC "-//W3C//DTD SVG 20010904//EN"
 "http://www.w3.org/TR/2001/REC-SVG-20010904/DTD/svg10.dtd">
<svg version="1.0" xmlns="http://www.w3.org/2000/svg"
 width="109.000000pt" height="115.000000pt" viewBox="0 0 109.000000 115.000000"
 preserveAspectRatio="xMidYMid meet">
<metadata>
Created by potrace 1.10, written by Peter Selinger 2001-2011
</metadata>
<g transform="translate(0.000000,115.000000) scale(0.100000,-0.100000)"
fill="#ADD8E6" stroke="none">
<path d="M418 1056 c-115 -33 -206 -96 -271 -189 -146 -205 -125 -482 49 -653
200 -198 505 -200 703 -5 66 64 123 169 142 258 50 242 -88 492 -319 575 -72
27 -234 34 -304 14z m231 -51 c131 -34 236 -115 290 -223 40 -78 52 -130 52
-215 0 -180 -94 -328 -260 -410 -62 -30 -71 -32 -176 -32 -90 1 -120 5 -165
23 -112 45 -207 139 -252 249 -19 49 -23 76 -23 174 0 113 1 117 37 190 46 94
91 145 162 188 107 64 228 85 335 56z"/>
<path d="M555 823 c-9 -32 -29 -98 -44 -148 -28 -87 -28 -90 -9 -99 11 -6 22
-6 27 0 9 10 91 274 91 293 0 6 -11 11 -24 11 -21 0 -27 -8 -41 -57z"/>
<path d="M353 779 c-40 -27 -73 -56 -73 -63 0 -11 140 -116 155 -116 2 0 9 9
15 20 9 17 4 24 -45 56 -30 20 -55 38 -55 40 0 2 24 19 54 38 44 28 53 39 49
55 -3 12 -10 21 -17 20 -6 0 -44 -22 -83 -50z"/>
<path d="M657 824 c-19 -20 -4 -46 43 -72 27 -15 50 -30 50 -33 0 -3 -22 -20
-50 -38 -47 -31 -64 -61 -41 -75 14 -9 161 96 161 113 -1 9 -33 36 -72 61 -86
54 -83 52 -91 44z"/>
<path d="M210 424 l0 -94 45 0 c63 0 85 24 85 93 0 66 -18 86 -83 91 l-47 3 0
-93z m91 35 c14 -27 3 -85 -17 -93 -30 -12 -34 -5 -34 54 0 53 2 60 20 60 10
0 24 -9 31 -21z"/>
<path d="M506 512 c-3 -3 -6 -45 -6 -94 l0 -88 45 0 c56 0 79 21 89 79 10 66
-15 99 -82 105 -22 2 -43 1 -46 -2z m84 -51 c22 -43 2 -101 -36 -101 -11 0
-14 15 -14 60 0 53 2 60 20 60 10 0 24 -9 30 -19z"/>
<path d="M812 504 c-14 -10 -22 -25 -22 -44 0 -24 7 -33 40 -50 22 -11 40 -25
40 -31 0 -17 -32 -23 -44 -8 -15 20 -47 13 -39 -9 9 -24 23 -32 60 -32 70 0
82 90 14 105 -16 3 -32 13 -35 21 -7 19 21 31 37 15 6 -6 19 -11 29 -11 16 0
17 3 7 23 -22 40 -50 47 -87 21z"/>
<path d="M381 457 c-21 -26 -24 -75 -7 -102 20 -30 65 -34 89 -7 23 25 22 85
-1 105 -22 20 -65 22 -81 4z m62 -37 c8 -31 -3 -61 -22 -58 -17 3 -27 39 -17
64 8 21 33 17 39 -6z"/>
<path d="M671 457 c-20 -25 -24 -75 -8 -101 22 -33 52 -38 82 -14 30 23 35 87
9 112 -19 20 -68 21 -83 3z m63 -41 c8 -32 -3 -58 -23 -54 -17 3 -27 39 -17
64 9 22 33 16 40 -10z"/>
</g>
</svg>
